<svg width="22" height="21" viewBox="0 0 22 21" fill="none" xmlns="http://www.w3.org/2000/svg">
<path d="M9.6875 0.212256C10.3083 -0.070752 11.025 -0.070752 11.6458 0.212256L20.7542 4.35483C21.1083 4.51479 21.3333 4.86343 21.3333 5.24897C21.3333 5.63452 21.1083 5.98315 20.7542 6.14312L11.6458 10.2857C11.025 10.5687 10.3083 10.5687 9.6875 10.2857L0.579167 6.14312C0.225 5.97905 0 5.63042 0 5.24897C0 4.86753 0.225 4.51479 0.579167 4.35483L9.6875 0.212256ZM18.5375 8.59585L20.7542 9.60483C21.1083 9.7648 21.3333 10.1134 21.3333 10.499C21.3333 10.8845 21.1083 11.2332 20.7542 11.3931L11.6458 15.5357C11.025 15.8187 10.3083 15.8187 9.6875 15.5357L0.579167 11.3931C0.225 11.2291 0 10.8804 0 10.499C0 10.1175 0.225 9.7648 0.579167 9.60483L2.79583 8.59585L9.12917 11.4751C9.61123 11.694 10.1358 11.8074 10.6667 11.8074C11.1975 11.8074 11.7221 11.694 12.2042 11.4751L18.5375 8.59585ZM12.2042 16.7251L18.5375 13.8458L20.7542 14.8548C21.1083 15.0148 21.3333 15.3634 21.3333 15.749C21.3333 16.1345 21.1083 16.4832 20.7542 16.6431L11.6458 20.7857C11.025 21.0687 10.3083 21.0687 9.6875 20.7857L0.579167 16.6431C0.225 16.4791 0 16.1304 0 15.749C0 15.3675 0.225 15.0148 0.579167 14.8548L2.79583 13.8458L9.12917 16.7251C9.61123 16.944 10.1358 17.0574 10.6667 17.0574C11.1975 17.0574 11.7221 16.944 12.2042 16.7251Z" fill="#2563EB"/>
</svg>
