<svg width="20" height="24" viewBox="0 0 20 24" fill="none" xmlns="http://www.w3.org/2000/svg">
<path d="M17.5 14H11.5C11.4535 14.0017 11.4075 13.9892 11.3682 13.9642C11.329 13.9392 11.2982 13.9029 11.28 13.86L10.32 12C10.2837 11.9244 10.229 11.8591 10.1608 11.8101C10.0927 11.7612 10.0133 11.7302 9.93 11.72C9.84595 11.7103 9.76081 11.7217 9.68225 11.7531C9.6037 11.7846 9.53419 11.835 9.48 11.9L7.6 14.21C7.44533 14.3739 7.23479 14.4738 7.01 14.49H6.01C5.94265 14.4886 5.87572 14.5009 5.81323 14.5261C5.75074 14.5512 5.69398 14.5887 5.64634 14.6364C5.59871 14.684 5.5612 14.7407 5.53605 14.8032C5.5109 14.8657 5.49864 14.9327 5.5 15V21C5.49837 21.0779 5.51572 21.155 5.55057 21.2247C5.58541 21.2944 5.6367 21.3546 5.7 21.4C8 23.13 9.78 24 11 24H16.55C16.9854 24.0737 17.4324 23.975 17.7964 23.7249C18.1603 23.4748 18.4127 23.0929 18.5 22.66C18.9872 20.2974 19.3212 17.9057 19.5 15.5C19.5 14.75 18.81 14 17.5 14ZM3.33 13.5H0.25C0.183696 13.5 0.120107 13.5263 0.0732234 13.5732C0.0263393 13.6201 0 13.6837 0 13.75V22.75C0 22.8163 0.0263393 22.8799 0.0732234 22.9268C0.120107 22.9737 0.183696 23 0.25 23H3.33C3.41363 23.0098 3.49839 23.0019 3.57878 22.9769C3.65916 22.9518 3.73336 22.9101 3.79656 22.8544C3.85975 22.7988 3.91053 22.7304 3.94558 22.6539C3.98063 22.5773 3.99917 22.4942 4 22.41V14.09C3.99917 14.0058 3.98063 13.9227 3.94558 13.8462C3.91053 13.7696 3.85975 13.7013 3.79656 13.6456C3.73336 13.59 3.65916 13.5482 3.57878 13.5232C3.49839 13.4981 3.41363 13.4902 3.33 13.5ZM14 9.00001C14 9.39783 14.158 9.77936 14.4393 10.0607C14.7206 10.342 15.1022 10.5 15.5 10.5C15.8978 10.5 16.2794 10.342 16.5607 10.0607C16.842 9.77936 17 9.39783 17 9.00001C17 8.60218 16.842 8.22065 16.5607 7.93935C16.2794 7.65804 15.8978 7.50001 15.5 7.50001C15.1022 7.50001 14.7206 7.65804 14.4393 7.93935C14.158 8.22065 14 8.60218 14 9.00001ZM8.5 11C8.64594 11.0019 8.79052 10.9718 8.9236 10.9119C9.05667 10.8519 9.17501 10.7636 9.27031 10.653C9.3656 10.5425 9.43555 10.4124 9.47523 10.272C9.51491 10.1315 9.52336 9.98408 9.5 9.84001L8.23 2.29001C8.20538 2.22561 8.20538 2.1544 8.23 2.09001C8.26051 2.04933 8.3027 2.01892 8.35094 2.00284C8.39918 1.98676 8.45118 1.98577 8.5 2.00001H16.5C16.7652 2.00001 17.0196 1.89465 17.2071 1.70711C17.3946 1.51958 17.5 1.26522 17.5 1.00001C17.5 0.73479 17.3946 0.480437 17.2071 0.2929C17.0196 0.105364 16.7652 6.8787e-06 16.5 6.8787e-06H7C6.85406 -0.00187538 6.70948 0.0282106 6.5764 0.0881526C6.44333 0.148095 6.32499 0.236439 6.22969 0.346984C6.1344 0.457529 6.06445 0.587594 6.02477 0.728047C5.98509 0.868501 5.97664 1.01594 6 1.16001L7.5 10.16C7.53833 10.3966 7.66039 10.6116 7.84394 10.7658C8.02748 10.92 8.26031 11.0031 8.5 11Z" fill="#2563EB"/>
</svg>
